<?xml version="1.0" encoding="UTF-8" standalone="no"?>
<!-- Created with Inkscape (http://www.inkscape.org/) -->

<svg
   xmlns:dc="http://purl.org/dc/elements/1.1/"
   xmlns:cc="http://creativecommons.org/ns#"
   xmlns:rdf="http://www.w3.org/1999/02/22-rdf-syntax-ns#"
   xmlns:svg="http://www.w3.org/2000/svg"
   xmlns="http://www.w3.org/2000/svg"
   xmlns:sodipodi="http://sodipodi.sourceforge.net/DTD/sodipodi-0.dtd"
   xmlns:inkscape="http://www.inkscape.org/namespaces/inkscape"
   width="100"
   height="100"
   id="svg4137"
   version="1.1"
   inkscape:version="0.48.5 r10040"
   sodipodi:docname="Nouveau document 18">
  <defs
     id="defs4139" />
  <sodipodi:namedview
     id="base"
     pagecolor="#ffffff"
     bordercolor="#666666"
     borderopacity="1.0"
     inkscape:pageopacity="0.0"
     inkscape:pageshadow="2"
     inkscape:zoom="0.35"
     inkscape:cx="375"
     inkscape:cy="520"
     inkscape:document-units="px"
     inkscape:current-layer="layer1"
     showgrid="false"
     inkscape:showpageshadow="false"
     inkscape:window-width="1920"
     inkscape:window-height="1017"
     inkscape:window-x="0"
     inkscape:window-y="27"
     inkscape:window-maximized="1" />
  <metadata
     id="metadata4142">
    <rdf:RDF>
      <cc:Work
         rdf:about="">
        <dc:format>image/svg+xml</dc:format>
        <dc:type
           rdf:resource="http://purl.org/dc/dcmitype/StillImage" />
        <dc:title></dc:title>
      </cc:Work>
    </rdf:RDF>
  </metadata>
  <g
     inkscape:label="Calque 1"
     inkscape:groupmode="layer"
     id="layer1"
     transform="translate(0,-952.36218)">
    <path
       inkscape:connector-curvature="0"
       id="path160"
       style="fill:#1a1817;fill-opacity:1;fill-rule:nonzero;stroke:none"
       d="m 0,1052.3622 100,0 0,-100 -100,0 0,100 z" />
    <path
       inkscape:connector-curvature="0"
       id="path162"
       style="fill:#ffffff;fill-opacity:1;fill-rule:nonzero;stroke:none"
       d="m 50.000398,968.48759 c -19.185397,0 -34.737538,15.55041 -34.737538,34.74191 0,15.3394 9.949655,28.3581 23.755497,32.9559 1.739664,0.3158 2.372631,-0.7603 2.372631,-1.6772 0,-0.824 -0.02654,-3.0095 -0.04777,-5.9089 -9.661701,2.0993 -11.698607,-4.6549 -11.698607,-4.6549 -1.581754,-4.0114 -3.860169,-5.0768 -3.860169,-5.0768 -3.151564,-2.159 0.241509,-2.1152 0.241509,-2.1152 3.488616,0.2468 5.322495,3.5787 5.322495,3.5787 3.095831,5.3104 8.129046,3.7712 10.110218,2.8848 0.311839,-2.2465 1.208874,-3.7712 2.201451,-4.6416 -7.713703,-0.8732 -15.822844,-3.8614 -15.822844,-17.1693 0,-3.78706 1.356168,-6.89213 3.573543,-9.31777 -0.355629,-0.88109 -1.545926,-4.41075 0.343686,-9.19438 0,0 2.912709,-0.93416 9.551562,3.56284 2.769396,-0.77228 5.7458,-1.15842 8.695664,-1.17169 2.951191,0.0133 5.923614,0.39941 8.694337,1.17169 6.636199,-4.497 9.550235,-3.56284 9.550235,-3.56284 1.890939,4.78363 0.700643,8.31329 0.341033,9.19438 2.222682,2.42564 3.572215,5.53071 3.572215,9.31777 0,13.3464 -8.125065,16.2829 -15.86398,17.1441 1.246029,1.0722 2.360688,3.1873 2.360688,6.429 0,4.6443 -0.04246,8.3903 -0.04246,9.5301 0,0.9275 0.627659,2.0063 2.389881,1.6666 13.788592,-4.5978 23.732939,-17.6112 23.732939,-32.9453 0,-19.1915 -15.54816,-34.74191 -34.736211,-34.74191" />
  </g>
</svg>
