<?xml version="1.0" encoding="UTF-8" standalone="no"?>
<!-- Created with Inkscape (http://www.inkscape.org/) -->

<svg
   xmlns:dc="http://purl.org/dc/elements/1.1/"
   xmlns:cc="http://creativecommons.org/ns#"
   xmlns:rdf="http://www.w3.org/1999/02/22-rdf-syntax-ns#"
   xmlns:svg="http://www.w3.org/2000/svg"
   xmlns="http://www.w3.org/2000/svg"
   xmlns:sodipodi="http://sodipodi.sourceforge.net/DTD/sodipodi-0.dtd"
   xmlns:inkscape="http://www.inkscape.org/namespaces/inkscape"
   width="100"
   height="100"
   id="svg4070"
   version="1.1"
   inkscape:version="0.48.5 r10040"
   sodipodi:docname="Nouveau document 14">
  <defs
     id="defs4072" />
  <sodipodi:namedview
     id="base"
     pagecolor="#ffffff"
     bordercolor="#666666"
     borderopacity="1.0"
     inkscape:pageopacity="0.0"
     inkscape:pageshadow="2"
     inkscape:zoom="0.35"
     inkscape:cx="375"
     inkscape:cy="520"
     inkscape:document-units="px"
     inkscape:current-layer="layer1"
     showgrid="false"
     inkscape:showpageshadow="false"
     inkscape:window-width="1920"
     inkscape:window-height="1017"
     inkscape:window-x="0"
     inkscape:window-y="27"
     inkscape:window-maximized="1" />
  <metadata
     id="metadata4075">
    <rdf:RDF>
      <cc:Work
         rdf:about="">
        <dc:format>image/svg+xml</dc:format>
        <dc:type
           rdf:resource="http://purl.org/dc/dcmitype/StillImage" />
        <dc:title></dc:title>
      </cc:Work>
    </rdf:RDF>
  </metadata>
  <g
     inkscape:label="Calque 1"
     inkscape:groupmode="layer"
     id="layer1"
     transform="translate(0,-952.36218)">
    <path
       inkscape:connector-curvature="0"
       id="path124"
       style="fill:#50abe4;fill-opacity:1;fill-rule:nonzero;stroke:none"
       d="m 0,1052.3622 100,0 0,-100 -100,0 0,100 z" />
    <path
       inkscape:connector-curvature="0"
       id="path126"
       style="fill:#ffffff;fill-opacity:1;fill-rule:nonzero;stroke:none"
       d="m 83.331011,981.68704 c -2.453527,1.08941 -5.090173,1.82453 -7.855533,2.15361 2.823746,-1.69316 4.99596,-4.37092 6.013729,-7.56617 -2.6393,1.56711 -5.56522,2.70694 -8.682221,3.31999 -2.495989,-2.65918 -6.05221,-4.31917 -9.985284,-4.31917 -7.554316,0 -13.678181,6.12512 -13.678181,13.6767 0,1.07349 0.122079,2.11513 0.354295,3.11564 -11.366637,-0.56793 -21.44348,-6.01233 -28.191011,-14.29107 -1.175676,2.02357 -1.851092,4.37092 -1.851092,6.87882 0,4.74246 2.413718,8.93159 6.08273,11.38244 -2.241216,-0.069 -4.349736,-0.68868 -6.194194,-1.71042 l 0,0.17117 c 0,6.62672 4.715973,12.15472 10.96988,13.41132 -1.145156,0.3118 -2.35666,0.483 -3.602664,0.483 -0.879767,0 -1.739629,-0.089 -2.572953,-0.2494 1.739629,5.4351 6.789994,9.3867 12.77453,9.5008 -4.677492,3.6677 -10.57445,5.8557 -16.98759,5.8557 -1.101367,0 -2.189464,-0.068 -3.258984,-0.1923 6.05221,3.8773 13.241615,6.1423 20.968433,6.1423 25.154954,0 38.912751,-20.8368 38.912751,-38.91364 0,-0.58916 -0.01592,-1.17964 -0.03715,-1.77146 2.665839,-1.92405 4.98269,-4.33376 6.820513,-7.07786" />
  </g>
</svg>
